# xmcd
#
# Track frame offsets: 
#        150
#        12404
#        28932
#        45064
#        63742
#        74755
#        97776
#        114232
#        130339
#        144731
#        165080
#        201819
#        215494
#        228357
#        246438
#        264101
#        274962
#        288774
#        298060
#        319340
#
# Disc length: 4433 seconds
#
# Revision: 2
# Processed by: cddbd v1.5.2PL0 Copyright (c) Steve Scherf et al.
# Submitted via: ExactAudioCopy v0.99pb5
#
DISCID=2b114f14
DTITLE=Jose Feliciano - The Best Of
DYEAR=1900
DGENRE=
TTITLE0=Che Sara
TTITLE1=Gauntanamera
TTITLE2=Light My Fire
TTITLE3=California Dreamin'
TTITLE4=Rain
TTITLE5=Susie-Q
TTITLE6=Hi-Heel Sneakers
TTITLE7=Sunny
TTITLE8=You`re No Good
TTITLE9=Norewegian Wood
TTITLE10=Hey Jude
TTITLE11=I`ll Be Your Baby Tonight
TTITLE12=Nature Boy
TTITLE13=Let It Be
TTITLE14=First Of May
TTITLE15=Extranos En La Noche (Strange In The Night)
TTITLE16=Camino Verde
TTITLE17=Feliz Navidad
TTITLE18=Mary`s Little Boy Child
TTITLE19=Yesterday
EXTD=
EXTT0=
EXTT1=
EXTT2=
EXTT3=
EXTT4=
EXTT5=
EXTT6=
EXTT7=
EXTT8=
EXTT9=
EXTT10=
EXTT11=
EXTT12=
EXTT13=
EXTT14=
EXTT15=
EXTT16=
EXTT17=
EXTT18=
EXTT19=
PLAYORDER=
